:SAMPLES-PER-SECOND 30
:FRAME-RANGE 1-2091
:FULLY-SPECIFIED
:DEGREES
1569
root  22.4328 37.5924 12.9483 -176.63 -69.9676 177.797
RightUpLeg  -28.2022 -9.03775 11.3916
RightLeg  21.7101 -9.28678 -4.26081
RightFoot  0.103627 0.833934 -8.29239
RightToes  5.82063e-011 0 -3.6325e-017
Spine  9.43752 -2.13008 3.32727
Spine1  -2.52558 -2.36836 2.52449
HEad  9.05765 52.5761 -9.10075
LeftShoulder1  0.784695 0.765811 -22.3082
LeftArm  -30.2469 -22.5768 -8.75248
LeftForeArm  17.1217 -9.47992 -11.2972
LeftHand  -0.113417 1.92942 3.52595
RightShoulder  1.93331 0.321411 44.3352
RightArm  11.6821 -10.5128 8.71394
RightForeArm  23.2044 -4.11637 17.2477
RightHand  0.563155 2.48728 8.09399
LeftUpLeg  16.9601 20.0624 8.28303
LeftLeg  23.1061 -2.95477 -1.04648
LeftFoot  -16.5118 -0.872234 -21.2733
LeftToes  -6.27584e-011 -2.25241e-010 2.80627e-011
1570
root  21.0938 37.3641 12.443 179.115 -69.0911 -177.963
RightUpLeg  -28.064 -8.85689 12.9621
RightLeg  26.8456 -9.08158 -5.19242
RightFoot  -3.69979 0.590023 -9.18025
RightToes  5.82063e-011 0 -3.6325e-017
Spine  9.90024 -2.43054 4.49319
Spine1  -2.37102 -2.68362 4.19132
HEad  9.47805 53.0724 -8.68707
LeftShoulder1  0.696939 0.908157 -20.3827
LeftArm  -36.4017 -23.2711 -4.84201
LeftForeArm  17.7481 -9.73776 -10.3852
LeftHand  -0.124253 2.13184 4.10766
RightShoulder  2.48052 1.38349 44.4674
RightArm  9.48035 -9.91074 9.34238
RightForeArm  22.9469 -2.41932 16.837
RightHand  0.563665 2.50876 8.07757
LeftUpLeg  12.9252 18.4106 10.2701
LeftLeg  33.9577 -1.22565 -0.530822
LeftFoot  -8.7456 0.645303 -25.7885
LeftToes  -6.27584e-011 -2.25241e-010 2.80627e-011
1571
root  19.9277 37.0917 11.9685 175.221 -68.7534 -173.431
RightUpLeg  -28.3209 -9.6754 14.8275
RightLeg  30.8826 -8.11344 -5.45664
RightFoot  -7.46502 0.254836 -8.99128
RightToes  5.82063e-011 0 -3.6325e-017
Spine  10.1377 -2.4823 5.90472
Spine1  -2.62735 -2.58254 5.68664
HEad  9.82995 52.1708 -7.91351
LeftShoulder1  0.646867 0.919957 -18.4347
LeftArm  -40.0948 -24.2942 -2.47758
LeftForeArm  16.9687 -11.4223 -9.29885
LeftHand  -0.135189 2.04163 4.39783
RightShoulder  2.55957 1.50543 44.7755
RightArm  11.2898 -9.21079 10.3282
RightForeArm  19.7123 1.9152 16.3639
RightHand  0.567442 2.62566 8.00425
LeftUpLeg  5.81046 14.5412 10.8371
LeftLeg  46.2134 -0.142462 0.253362
LeftFoot  3.36555 2.67537 -20.6923
LeftToes  -6.27584e-011 -2.25241e-010 2.80627e-011
1572
root  18.9435 36.7691 11.5803 170.739 -67.7409 -168.561
RightUpLeg  -28.103 -9.83777 16.86
RightLeg  34.2174 -7.38749 -5.64465
RightFoot  -10.6759 -0.022542 -8.48469
RightToes  5.82063e-011 0 -3.6325e-017
Spine  11.0161 -2.32608 8.31304
Spine1  -2.6457 -1.88997 6.41699
HEad  9.08676 50.5422 -7.88252
LeftShoulder1  0.623083 0.896948 -17.2104
LeftArm  -41.2442 -25.5191 -0.346568
LeftForeArm  16.2958 -13.8122 -8.21592
LeftHand  -0.160391 1.83958 5.01594
RightShoulder  3.04838 2.32115 45.8707
RightArm  16.6638 -8.61884 11.0879
RightForeArm  13.5459 7.74875 14.9438
RightHand  0.535718 2.61434 7.55836
LeftUpLeg  -0.812805 11.7234 12.3171
LeftLeg  56.8304 -1.40151 -1.80798
LeftFoot  13.2971 3.00592 -14.0822
LeftToes  -6.27584e-011 -2.25241e-010 2.80627e-011
1573
root  17.8368 36.8669 11.1004 169.762 -66.7816 -167.84
RightUpLeg  -25.6813 -10.5022 17.1298
RightLeg  34.6369 -6.52036 -5.09965
RightFoot  -12.8094 -0.191905 -8.22086
RightToes  5.82063e-011 0 -3.6325e-017
Spine  11.6927 -1.89374 8.82658
Spine1  -2.82776 -1.20795 6.44321
HEad  8.26895 48.7364 -8.08205
LeftShoulder1  0.60553 0.91475 -16.6531
LeftArm  -39.2975 -26.9354 1.36683
LeftForeArm  15.0411 -16.3818 -7.18496
LeftHand  -0.198564 1.74222 6.1314
RightShoulder  3.95642 3.86237 47.0767
RightArm  22.5537 -7.6453 11.9892
RightForeArm  7.63463 12.4317 12.8067
RightHand  0.459558 2.67035 6.40775
LeftUpLeg  -6.52511 9.08179 12.5024
LeftLeg  64.7868 -1.37883 -2.5576
LeftFoot  9.06162 2.42064 -13.7069
LeftToes  -6.27584e-011 -2.25241e-010 2.80627e-011
1574
root  16.72 37.1365 10.5901 170.614 -65.7631 -169.083
RightUpLeg  -22.5577 -10.8328 16.4301
RightLeg  33.8262 -5.75373 -4.41262
RightFoot  -14.2436 -0.299795 -8.02622
RightToes  5.82063e-011 0 -3.6325e-017
Spine  11.8709 -1.26263 8.77177
Spine1  -2.94697 -0.40485 5.82431
HEad  8.06402 46.6799 -8.0468
LeftShoulder1  0.612078 0.884823 -16.6347
LeftArm  -34.6039 -28.3112 2.30244
LeftForeArm  12.0688 -19.1442 -5.99477
LeftHand  -0.213548 1.70961 6.56167
RightShoulder  4.92368 5.43493 48.2773
RightArm  26.1927 -6.00706 13.1058
RightForeArm  4.45592 15.2578 10.9338
RightHand  0.368428 2.63547 5.12295
LeftUpLeg  -11.6528 6.56324 11.9343
LeftLeg  68.7267 -1.35748 -3.10204
LeftFoot  7.41869 1.9214 -11.8727
LeftToes  -6.27584e-011 -2.25241e-010 2.80627e-011
1575
root  15.5641 37.5153 10.0541 171.958 -64.6482 -171
RightUpLeg  -18.6815 -11.3094 15.1884
RightLeg  31.9093 -4.58306 -3.34302
RightFoot  -15.052 -0.348879 -7.62148
RightToes  5.82063e-011 0 -3.6325e-017
Spine  12.0887 -0.5666 8.95462
Spine1  -3.60935 0.561155 4.31204
HEad  9.001 44.1884 -7.278
LeftShoulder1  0.626208 0.870064 -17.0749
LeftArm  -29.4036 -29.7171 2.04271
LeftForeArm  8.88262 -21.2048 -5.15364
LeftHand  -0.213806 1.63102 6.44198
RightShoulder  5.86481 6.99638 48.9458
RightArm  29.4327 -4.87772 14.581
RightForeArm  1.5489 17.7427 8.94474
RightHand  0.332627 2.5457 4.66538
LeftUpLeg  -15.9641 4.14032 11.1517
LeftLeg  69.3498 -1.14731 -2.59821
LeftFoot  4.64129 1.34459 -9.76212
LeftToes  -6.27584e-011 -2.25241e-010 2.80627e-011
